<svg xmlns="http://www.w3.org/2000/svg" viewBox="0 0 341 48" width="341" height="48" role="img" aria-label="Verana Foundation">
  <g transform="translate(0,3) scale(0.80769)">
    <path fill="#763EF0" d="M26.9932 51.6972L5.805 11.0977L2.91263 16.2161L0 10.6048L5.98725 0L26.9932 40.2483L47.9993 0L54 10.6217L51.0773 16.2161L48.1849 11.0977L26.9932 51.6972Z"/>
    <path fill="#1FB57A" d="M13.696 0L26.9935 25.4637L39.9367 0H13.696Z"/>
  </g>
  <path fill="#111111" d="M63.40909090909091 11.227272727272727 69.4659090909091 29.545454545454547H69.70454545454545L75.75 11.227272727272727H80.38636363636364L72.18181818181819 34.5H66.97727272727273L58.78409090909091 11.227272727272727ZM90.36 34.84090909090909Q87.735 34.84090909090909 85.8315909090909 33.74431818181819Q83.92818181818181 32.64772727272727 82.90545454545455 30.63068181818182Q81.88272727272727 28.613636363636363 81.88272727272727 25.875Q81.88272727272727 23.18181818181818 82.91113636363636 21.142045454545453Q83.93954545454545 19.102272727272727 85.79181818181817 17.960227272727273Q87.6440909090909 16.818181818181817 90.1440909090909 16.818181818181817Q91.75772727272727 16.818181818181817 93.19522727272727 17.335227272727273Q94.63272727272727 17.852272727272727 95.74068181818181 18.93181818181818Q96.84863636363636 20.011363636363637 97.485 21.676136363636363Q98.12136363636364 23.34090909090909 98.12136363636364 25.636363636363637V26.897727272727273H83.81454545454545V24.125H94.17818181818181Q94.16681818181817 22.94318181818182 93.66681818181817 22.017045454545453Q93.16681818181817 21.09090909090909 92.27477272727272 20.55681818181818Q91.38272727272727 20.022727272727273 90.2009090909091 20.022727272727273Q88.93954545454545 20.022727272727273 87.985 20.63068181818182Q87.03045454545455 21.238636363636363 86.50204545454545 22.221590909090907Q85.97363636363636 23.204545454545453 85.96227272727272 24.375V26.795454545454547Q85.96227272727272 28.31818181818182 86.5190909090909 29.403409090909093Q87.0759090909091 30.488636363636363 88.0759090909091 31.0625Q89.0759090909091 31.636363636363637 90.41681818181817 31.636363636363637Q91.31454545454545 31.636363636363637 92.04181818181817 31.38068181818182Q92.7690909090909 31.125 93.30318181818181 30.625Q93.83727272727272 30.125 94.11 29.386363636363637L97.9509090909091 29.81818181818182Q97.58727272727273 31.34090909090909 96.57022727272727 32.47159090909091Q95.55318181818181 33.60227272727273 93.97363636363636 34.22159090909091Q92.3940909090909 34.84090909090909 90.36 34.84090909090909ZM100.95863636363636 34.5V17.045454545454547H104.94727272727273V19.954545454545453H105.1290909090909Q105.60636363636364 18.443181818181817 106.77113636363637 17.61931818181818Q107.93590909090909 16.795454545454543 109.43590909090909 16.795454545454543Q109.77681818181819 16.795454545454543 110.20295454545455 16.823863636363633Q110.6290909090909 16.852272727272727 110.91318181818181 16.90909090909091V20.69318181818182Q110.65181818181819 20.602272727272727 110.08931818181819 20.52840909090909Q109.52681818181819 20.454545454545453 109.0040909090909 20.454545454545453Q107.8790909090909 20.454545454545453 106.98704545454545 20.9375Q106.095 21.420454545454547 105.58363636363637 22.272727272727273Q105.07227272727273 23.125 105.07227272727273 24.238636363636363V34.5ZM118.03454545454545 34.85227272727273Q116.37545454545455 34.85227272727273 115.0515909090909 34.25568181818181Q113.72772727272726 33.65909090909091 112.96068181818181 32.48863636363636Q112.19363636363636 31.318181818181817 112.19363636363636 29.602272727272727Q112.19363636363636 28.125 112.7390909090909 27.15909090909091Q113.28454545454545 26.19318181818182 114.22772727272726 25.613636363636363Q115.17090909090908 25.034090909090907 116.35840909090908 24.732954545454543Q117.54590909090908 24.43181818181818 118.81863636363636 24.295454545454547Q120.35272727272726 24.136363636363637 121.30727272727272 24.00568181818182Q122.26181818181817 23.875 122.69931818181817 23.59659090909091Q123.13681818181817 23.31818181818182 123.13681818181817 22.727272727272727V22.659090909090907Q123.13681818181817 21.375 122.37545454545455 20.670454545454547Q121.6140909090909 19.96590909090909 120.18227272727272 19.96590909090909Q118.67090909090908 19.96590909090909 117.79022727272726 20.625Q116.90954545454545 21.284090909090907 116.60272727272726 22.18181818181818L112.76181818181817 21.636363636363637Q113.21636363636362 20.045454545454547 114.26181818181817 18.97159090909091Q115.30727272727272 17.897727272727273 116.81863636363636 17.357954545454547Q118.33 16.818181818181817 120.15954545454545 16.818181818181817Q121.42090909090908 16.818181818181817 122.67090909090908 17.113636363636363Q123.92090909090908 17.40909090909091 124.95499999999998 18.085227272727273Q125.9890909090909 18.761363636363637 126.61977272727273 19.920454545454547Q127.25045454545455 21.079545454545453 127.25045454545455 22.81818181818182V34.5H123.29590909090908V32.10227272727273H123.15954545454545Q122.78454545454545 32.82954545454545 122.10840909090908 33.46022727272727Q121.43227272727272 34.09090909090909 120.41522727272726 34.47159090909091Q119.39818181818181 34.85227272727273 118.03454545454545 34.85227272727273ZM119.10272727272726 31.829545454545453Q120.34136363636362 31.829545454545453 121.25045454545455 31.335227272727273Q122.15954545454545 30.84090909090909 122.65386363636364 30.022727272727273Q123.14818181818181 29.204545454545453 123.14818181818181 28.238636363636363V26.18181818181818Q122.955 26.34090909090909 122.49477272727273 26.477272727272727Q122.03454545454545 26.613636363636363 121.46636363636364 26.715909090909093Q120.89818181818181 26.81818181818182 120.34136363636364 26.897727272727273Q119.78454545454545 26.977272727272727 119.37545454545455 27.03409090909091Q118.455 27.15909090909091 117.72772727272726 27.44318181818182Q117.00045454545455 27.727272727272727 116.58 28.232954545454547Q116.15954545454545 28.738636363636363 116.15954545454545 29.53409090909091Q116.15954545454545 30.670454545454547 116.9890909090909 31.25Q117.81863636363636 31.829545454545453 119.10272727272726 31.829545454545453ZM134.87181818181818 24.272727272727273V34.5H130.75818181818184V17.045454545454547H134.69V20.011363636363637H134.89454545454547Q135.49681818181818 18.545454545454547 136.8206818181818 17.68181818181818Q138.14454545454547 16.818181818181817 140.09909090909093 16.818181818181817Q141.9059090909091 16.818181818181817 143.2525 17.59090909090909Q144.59909090909093 18.363636363636363 145.34340909090912 19.829545454545453Q146.08772727272728 21.295454545454547 146.07636363636365 23.386363636363637V34.5H141.96272727272728V24.022727272727273Q141.96272727272728 22.272727272727273 141.05931818181818 21.28409090909091Q140.1559090909091 20.295454545454547 138.565 20.295454545454547Q137.48545454545456 20.295454545454547 136.65022727272728 20.767045454545453Q135.815 21.238636363636363 135.3434090909091 22.125Q134.87181818181818 23.011363636363637 134.87181818181818 24.272727272727273ZM154.65227272727273 34.85227272727273Q152.99318181818182 34.85227272727273 151.6693181818182 34.25568181818181Q150.34545454545457 33.65909090909091 149.5784090909091 32.48863636363636Q148.81136363636364 31.318181818181817 148.81136363636364 29.602272727272727Q148.81136363636364 28.125 149.3568181818182 27.15909090909091Q149.90227272727273 26.19318181818182 150.84545454545457 25.613636363636363Q151.78863636363639 25.034090909090907 152.97613636363639 24.732954545454543Q154.16363636363639 24.43181818181818 155.43636363636364 24.295454545454547Q156.97045454545457 24.136363636363637 157.925 24.00568181818182Q158.87954545454548 23.875 159.31704545454548 23.59659090909091Q159.75454545454548 23.31818181818182 159.75454545454548 22.727272727272727V22.659090909090907Q159.75454545454548 21.375 158.99318181818182 20.670454545454547Q158.2318181818182 19.96590909090909 156.8 19.96590909090909Q155.28863636363639 19.96590909090909 154.40795454545457 20.625Q153.52727272727273 21.284090909090907 153.22045454545457 22.18181818181818L149.37954545454548 21.636363636363637Q149.83409090909092 20.045454545454547 150.87954545454545 18.97159090909091Q151.925 17.897727272727273 153.43636363636364 17.357954545454547Q154.9477272727273 16.818181818181817 156.77727272727273 16.818181818181817Q158.03863636363639 16.818181818181817 159.28863636363639 17.113636363636363Q160.53863636363639 17.40909090909091 161.5727272727273 18.085227272727273Q162.6068181818182 18.761363636363637 163.2375 19.920454545454547Q163.86818181818182 21.079545454545453 163.86818181818182 22.81818181818182V34.5H159.91363636363639V32.10227272727273H159.77727272727273Q159.40227272727273 32.82954545454545 158.72613636363639 33.46022727272727Q158.05 34.09090909090909 157.03295454545457 34.47159090909091Q156.0159090909091 34.85227272727273 154.65227272727273 34.85227272727273ZM155.72045454545457 31.829545454545453Q156.95909090909092 31.829545454545453 157.86818181818182 31.335227272727273Q158.77727272727273 30.84090909090909 159.27159090909092 30.022727272727273Q159.7659090909091 29.204545454545453 159.7659090909091 28.238636363636363V26.18181818181818Q159.5727272727273 26.34090909090909 159.1125 26.477272727272727Q158.65227272727273 26.613636363636363 158.08409090909092 26.715909090909093Q157.5159090909091 26.81818181818182 156.95909090909092 26.897727272727273Q156.40227272727273 26.977272727272727 155.99318181818182 27.03409090909091Q155.0727272727273 27.15909090909091 154.34545454545457 27.44318181818182Q153.61818181818182 27.727272727272727 153.19772727272726 28.232954545454547Q152.77727272727273 28.738636363636363 152.77727272727273 29.53409090909091Q152.77727272727273 30.670454545454547 153.6068181818182 31.25Q154.43636363636364 31.829545454545453 155.72045454545457 31.829545454545453Z"/>
  <path fill="#763EF0" d="M167.55772727272728 34.5V11.227272727272727H182.4668181818182V14.761363636363637H171.77363636363637V21.079545454545453H181.44409090909093V24.613636363636363H171.77363636363637V34.5ZM193.08818181818185 34.84090909090909Q190.53136363636366 34.84090909090909 188.65636363636366 33.71590909090909Q186.78136363636366 32.59090909090909 185.7529545454546 30.56818181818182Q184.7245454545455 28.545454545454547 184.7245454545455 25.84090909090909Q184.7245454545455 23.136363636363637 185.7529545454546 21.102272727272727Q186.78136363636366 19.06818181818182 188.65636363636366 17.94318181818182Q190.53136363636366 16.818181818181817 193.08818181818185 16.818181818181817Q195.64500000000004 16.818181818181817 197.52000000000004 17.94318181818182Q199.39500000000004 19.06818181818182 200.42340909090913 21.102272727272727Q201.45181818181823 23.136363636363637 201.45181818181823 25.84090909090909Q201.45181818181823 28.545454545454547 200.42340909090913 30.56818181818182Q199.39500000000004 32.59090909090909 197.52000000000004 33.71590909090909Q195.64500000000004 34.84090909090909 193.08818181818185 34.84090909090909ZM193.11090909090913 31.545454545454547Q194.49727272727276 31.545454545454547 195.42909090909095 30.778409090909093Q196.36090909090913 30.011363636363637 196.8211363636364 28.715909090909093Q197.28136363636366 27.420454545454547 197.28136363636366 25.829545454545453Q197.28136363636366 24.227272727272727 196.8211363636364 22.926136363636363Q196.36090909090913 21.625 195.42909090909095 20.852272727272727Q194.49727272727276 20.079545454545453 193.11090909090913 20.079545454545453Q191.6904545454546 20.079545454545453 190.7529545454546 20.852272727272727Q189.8154545454546 21.625 189.35522727272732 22.926136363636363Q188.89500000000004 24.227272727272727 188.89500000000004 25.829545454545453Q188.89500000000004 27.420454545454547 189.35522727272732 28.715909090909093Q189.8154545454546 30.011363636363637 190.7529545454546 30.778409090909093Q191.6904545454546 31.545454545454547 193.11090909090913 31.545454545454547ZM215.414090909091 27.15909090909091V17.045454545454547H219.52772727272733V34.5H215.539090909091V31.397727272727273H215.3572727272728Q214.7663636363637 32.86363636363637 213.4197727272728 33.79545454545455Q212.0731818181819 34.72727272727273 210.1072727272728 34.72727272727273Q208.3913636363637 34.72727272727273 207.0788636363637 33.96022727272727Q205.7663636363637 33.19318181818182 205.02772727272736 31.72159090909091Q204.289090909091 30.25 204.289090909091 28.15909090909091V17.045454545454547H208.40272727272733V27.522727272727273Q208.40272727272733 29.18181818181818 209.31181818181824 30.159090909090907Q210.22090909090915 31.136363636363637 211.6981818181819 31.136363636363637Q212.6072727272728 31.136363636363637 213.45954545454552 30.69318181818182Q214.31181818181824 30.25 214.8629545454546 29.36931818181818Q215.414090909091 28.488636363636363 215.414090909091 27.15909090909091ZM227.22863636363644 24.272727272727273V34.5H223.1150000000001V17.045454545454547H227.04681818181825V20.011363636363637H227.25136363636372Q227.85363636363644 18.545454545454547 229.17750000000007 17.68181818181818Q230.50136363636372 16.818181818181817 232.4559090909092 16.818181818181817Q234.26272727272735 16.818181818181817 235.60931818181825 17.59090909090909Q236.9559090909092 18.363636363636363 237.70022727272737 19.829545454545453Q238.44454545454553 21.295454545454547 238.4331818181819 23.386363636363637V34.5H234.31954545454553V24.022727272727273Q234.31954545454553 22.272727272727273 233.41613636363644 21.28409090909091Q232.51272727272735 20.295454545454547 230.92181818181825 20.295454545454547Q229.8422727272728 20.295454545454547 229.00704545454553 20.767045454545453Q228.17181818181825 21.238636363636363 227.70022727272735 22.125Q227.22863636363644 23.011363636363637 227.22863636363644 24.272727272727273ZM248.46363636363645 34.80681818181818Q246.40681818181827 34.80681818181818 244.78181818181827 33.75Q243.15681818181827 32.69318181818182 242.21363636363645 30.681818181818183Q241.27045454545464 28.670454545454547 241.27045454545464 25.795454545454547Q241.27045454545464 22.886363636363637 242.2306818181819 20.88068181818182Q243.19090909090917 18.875 244.82727272727283 17.846590909090907Q246.46363636363645 16.818181818181817 248.47500000000008 16.818181818181817Q250.009090909091 16.818181818181817 250.99772727272736 17.335227272727273Q251.98636363636373 17.852272727272727 252.5659090909092 18.573863636363637Q253.14545454545464 19.295454545454547 253.46363636363645 19.93181818181818H253.634090909091V11.227272727272727H257.759090909091V34.5H253.71363636363645V31.75H253.46363636363645Q253.14545454545464 32.38636363636363 252.5431818181819 33.09659090909091Q251.94090909090917 33.80681818181818 250.95227272727283 34.30681818181818Q249.96363636363645 34.80681818181818 248.46363636363645 34.80681818181818ZM249.61136363636373 31.43181818181818Q250.9181818181819 31.43181818181818 251.83863636363645 30.721590909090907Q252.759090909091 30.011363636363637 253.2363636363637 28.738636363636363Q253.71363636363645 27.46590909090909 253.71363636363645 25.772727272727273Q253.71363636363645 24.079545454545453 253.24204545454555 22.829545454545453Q252.77045454545464 21.579545454545453 251.8556818181819 20.886363636363637Q250.94090909090917 20.19318181818182 249.61136363636373 20.19318181818182Q248.23636363636373 20.19318181818182 247.3159090909092 20.90909090909091Q246.39545454545464 21.625 245.92954545454555 22.886363636363637Q245.46363636363645 24.147727272727273 245.46363636363645 25.772727272727273Q245.46363636363645 27.40909090909091 245.93522727272736 28.6875Q246.40681818181827 29.96590909090909 247.33295454545464 30.698863636363633Q248.259090909091 31.43181818181818 249.61136363636373 31.43181818181818ZM266.53954545454553 34.85227272727273Q264.88045454545465 34.85227272727273 263.556590909091 34.25568181818181Q262.23272727272735 33.65909090909091 261.4656818181819 32.48863636363636Q260.69863636363647 31.318181818181817 260.69863636363647 29.602272727272727Q260.69863636363647 28.125 261.244090909091 27.15909090909091Q261.78954545454553 26.19318181818182 262.73272727272735 25.613636363636363Q263.67590909090916 25.034090909090907 264.86340909090916 24.732954545454543Q266.05090909090916 24.43181818181818 267.32363636363647 24.295454545454547Q268.85772727272735 24.136363636363637 269.8122727272728 24.00568181818182Q270.7668181818183 23.875 271.2043181818183 23.59659090909091Q271.6418181818183 23.31818181818182 271.6418181818183 22.727272727272727V22.659090909090907Q271.6418181818183 21.375 270.88045454545465 20.670454545454547Q270.11909090909097 19.96590909090909 268.68727272727284 19.96590909090909Q267.17590909090916 19.96590909090909 266.29522727272735 20.625Q265.41454545454553 21.284090909090907 265.10772727272735 22.18181818181818L261.2668181818183 21.636363636363637Q261.7213636363637 20.045454545454547 262.7668181818183 18.97159090909091Q263.81227272727284 17.897727272727273 265.32363636363647 17.357954545454547Q266.8350000000001 16.818181818181817 268.66454545454553 16.818181818181817Q269.92590909090916 16.818181818181817 271.17590909090916 17.113636363636363Q272.42590909090916 17.40909090909091 273.46000000000004 18.085227272727273Q274.49409090909097 18.761363636363637 275.1247727272728 19.920454545454547Q275.75545454545465 21.079545454545453 275.75545454545465 22.81818181818182V34.5H271.80090909090916V32.10227272727273H271.66454545454553Q271.28954545454553 32.82954545454545 270.61340909090916 33.46022727272727Q269.93727272727284 34.09090909090909 268.9202272727274 34.47159090909091Q267.9031818181819 34.85227272727273 266.53954545454553 34.85227272727273ZM267.60772727272735 31.829545454545453Q268.8463636363637 31.829545454545453 269.75545454545465 31.335227272727273Q270.66454545454553 30.84090909090909 271.1588636363637 30.022727272727273Q271.6531818181819 29.204545454545453 271.6531818181819 28.238636363636363V26.18181818181818Q271.4600000000001 26.34090909090909 270.9997727272728 26.477272727272727Q270.53954545454553 26.613636363636363 269.9713636363637 26.715909090909093Q269.4031818181819 26.81818181818182 268.8463636363637 26.897727272727273Q268.28954545454553 26.977272727272727 267.88045454545465 27.03409090909091Q266.9600000000001 27.15909090909091 266.2327272727274 27.44318181818182Q265.50545454545465 27.727272727272727 265.0850000000001 28.232954545454547Q264.66454545454553 28.738636363636363 264.66454545454553 29.53409090909091Q264.66454545454553 30.670454545454547 265.494090909091 31.25Q266.32363636363647 31.829545454545453 267.60772727272735 31.829545454545453ZM287.979090909091 17.045454545454547V20.227272727272727H277.9450000000001V17.045454545454547ZM280.4222727272728 12.863636363636363H284.5359090909092V29.25Q284.5359090909092 30.079545454545453 284.791590909091 30.517045454545453Q285.0472727272728 30.954545454545453 285.46772727272736 31.113636363636363Q285.8881818181819 31.272727272727273 286.39954545454555 31.272727272727273Q286.7859090909092 31.272727272727273 287.1097727272728 31.215909090909093Q287.4336363636365 31.15909090909091 287.604090909091 31.113636363636363L288.2972727272728 34.32954545454545Q287.96772727272736 34.44318181818182 287.3597727272728 34.57954545454545Q286.7518181818183 34.71590909090909 285.8768181818183 34.73863636363637Q284.33136363636373 34.78409090909091 283.09272727272736 34.26704545454545Q281.854090909091 33.75 281.13250000000005 32.65909090909091Q280.4109090909092 31.568181818181817 280.4222727272728 29.93181818181818ZM290.78227272727287 34.5V17.045454545454547H294.89590909090924V34.5ZM292.8504545454547 14.568181818181817Q291.87318181818193 14.568181818181817 291.1686363636365 13.914772727272727Q290.46409090909106 13.261363636363637 290.46409090909106 12.34090909090909Q290.46409090909106 11.40909090909091 291.1686363636365 10.755681818181818Q291.87318181818193 10.102272727272727 292.8504545454547 10.102272727272727Q293.83909090909106 10.102272727272727 294.5379545454547 10.755681818181818Q295.2368181818183 11.40909090909091 295.2368181818183 12.34090909090909Q295.2368181818183 13.261363636363637 294.5379545454547 13.914772727272727Q293.83909090909106 14.568181818181817 292.8504545454547 14.568181818181817ZM306.0968181818183 34.84090909090909Q303.54000000000013 34.84090909090909 301.66500000000013 33.71590909090909Q299.79000000000013 32.59090909090909 298.76159090909107 30.56818181818182Q297.73318181818195 28.545454545454547 297.73318181818195 25.84090909090909Q297.73318181818195 23.136363636363637 298.76159090909107 21.102272727272727Q299.79000000000013 19.06818181818182 301.66500000000013 17.94318181818182Q303.54000000000013 16.818181818181817 306.0968181818183 16.818181818181817Q308.6536363636365 16.818181818181817 310.5286363636365 17.94318181818182Q312.4036363636365 19.06818181818182 313.4320454545456 21.102272727272727Q314.46045454545464 23.136363636363637 314.46045454545464 25.84090909090909Q314.46045454545464 28.545454545454547 313.4320454545456 30.56818181818182Q312.4036363636365 32.59090909090909 310.5286363636365 33.71590909090909Q308.6536363636365 34.84090909090909 306.0968181818183 34.84090909090909ZM306.1195454545456 31.545454545454547Q307.5059090909092 31.545454545454547 308.4377272727274 30.778409090909093Q309.3695454545456 30.011363636363637 309.8297727272728 28.715909090909093Q310.29000000000013 27.420454545454547 310.29000000000013 25.829545454545453Q310.29000000000013 24.227272727272727 309.8297727272728 22.926136363636363Q309.3695454545456 21.625 308.4377272727274 20.852272727272727Q307.5059090909092 20.079545454545453 306.1195454545456 20.079545454545453Q304.699090909091 20.079545454545453 303.761590909091 20.852272727272727Q302.824090909091 21.625 302.36386363636376 22.926136363636363Q301.9036363636365 24.227272727272727 301.9036363636365 25.829545454545453Q301.9036363636365 27.420454545454547 302.36386363636376 28.715909090909093Q302.824090909091 30.011363636363637 303.761590909091 30.778409090909093Q304.699090909091 31.545454545454547 306.1195454545456 31.545454545454547ZM321.4113636363638 24.272727272727273V34.5H317.2977272727274V17.045454545454547H321.2295454545456V20.011363636363637H321.434090909091Q322.0363636363638 18.545454545454547 323.3602272727274 17.68181818181818Q324.684090909091 16.818181818181817 326.63863636363646 16.818181818181817Q328.44545454545465 16.818181818181817 329.7920454545456 17.59090909090909Q331.13863636363646 18.363636363636363 331.88295454545465 19.829545454545453Q332.62727272727284 21.295454545454547 332.6159090909092 23.386363636363637V34.5H328.50227272727284V24.022727272727273Q328.50227272727284 22.272727272727273 327.5988636363637 21.28409090909091Q326.69545454545465 20.295454545454547 325.1045454545456 20.295454545454547Q324.0250000000001 20.295454545454547 323.18977272727284 20.767045454545453Q322.3545454545456 21.238636363636363 321.8829545454547 22.125Q321.4113636363638 23.011363636363637 321.4113636363638 24.272727272727273Z"/>
</svg>
